<svg xmlns="http://www.w3.org/2000/svg" viewBox="0 0 386.53 383.52"><defs><style>.cls-1{fill:#fff;}</style></defs><title>logo_isi8_vector_white</title><g id="Calque_2" data-name="Calque 2"><g id="Calque_1-2" data-name="Calque 1"><path class="cls-1" d="M0,383.52V0H386.53V383.52Zm9.75-6.06H377.11l-67.05-67.08L197.11,197.43c-3.4-3.4-3.4-3.4-6.91.11Q101.78,286,13.34,374.38C12.46,375.27,11.44,376,9.75,377.46ZM125.21,256.3A137.16,137.16,0,0,1,92,233.21a134.45,134.45,0,0,1-28.54-38.64C52.32,172.28,49,148.83,51.54,124.26a115.34,115.34,0,0,1,9.84-35.9,133,133,0,0,1,40-50.91,144.44,144.44,0,0,1,41-22.56A148.44,148.44,0,0,1,177.53,6.8H6V375.48Zm136.9-.55L379.8,373.43V6.71H214.4c1.31.51,2.71.35,3.94.75,11.7,3.78,23.54,7.23,35,11.61,16.27,6.22,30.19,16.35,42.65,28.37a132.43,132.43,0,0,1,28.55,40.83c5.64,12.33,9.53,25.3,10.31,38.77.73,12.44.71,25-1.91,37.41-5,23.8-16.12,44.31-32.36,62A137.54,137.54,0,0,1,262.11,255.75ZM189.6,12.82l-.11-.79c-6.08.66-12.17,1.3-18.26,2-14.75,1.68-28.62,6.35-41.84,12.88A123.49,123.49,0,0,0,101.8,45.05c-8.28,7.34-16.16,15-22.51,24.06-10.74,15.35-18.08,32.08-21.08,50.71a120.55,120.55,0,0,0,.36,42.11,116.36,116.36,0,0,0,18.89,44.94c7.22,10.37,15.31,20,25.47,27.51,7.95,5.89,16.42,11.09,24.77,16.42.94.6,3.13.66,3.83,0,6-5.65,11.71-11.51,17.36-17.14-5.5-4.37-11.08-8.24-16-12.82-13.38-12.44-24.45-26.63-31.66-43.61a107.77,107.77,0,0,1-8.94-38.41,145.76,145.76,0,0,1,2.13-27.63c3.64-23.16,15-42.53,30.89-59.39A154.29,154.29,0,0,1,141,37.61a116.69,116.69,0,0,1,28-16.78C175.76,18,182.71,15.48,189.6,12.82Z"/><path class="cls-1" d="M252,303.54H225.71V370l-3.75.43V303.77H165V370l-3.76.43V303.71H133.54c1.55-2.88,3.26-4,6.28-4,35.23.1,70.46,0,105.69.15,2.29,0,4.58,1.24,6.88,1.9Z"/><path class="cls-1" d="M224.08,256.67a29.92,29.92,0,0,1-30.74,29.55c-17.09-.21-29.94-13.42-29.91-29.55s12.76-29.48,30.28-29.53A29.87,29.87,0,0,1,224.08,256.67Zm-30.42,25.88c15.11-.15,26.64-11.61,26.6-25.83S209.08,231,193.74,230.88c-14.89-.07-26.54,11.55-26.59,25.73S178.44,282.23,193.66,282.55Z"/></g></g></svg>